<svg width="230" height="150" viewBox="0 0 230 150" fill="none" xmlns="http://www.w3.org/2000/svg">
<path d="M33.504 94H16.224V51.28H0.768V39.28H48.96V51.28H33.504V94ZM123.735 94H107.607L106.359 63.856C106.167 57.904 105.943 53.392 105.687 50.32H105.399C104.631 52.752 103.735 56.528 102.711 61.648L102.231 64.048L95.607 94H79.479L73.911 67.024L72.951 62.224C71.607 56.272 70.679 52.304 70.167 50.32H69.879C69.623 53.52 69.399 58.736 69.207 65.968C69.143 66.416 69.111 67.12 69.111 68.08L68.247 94H52.023L54.327 39.28H81.783L86.487 62.896L87.639 69.232C88.151 67.248 88.631 65.04 89.079 62.608L93.495 39.28H121.527L123.735 94ZM174.373 35.728V94H160.837L159.493 86.608C158.213 89.104 156.325 91.088 153.829 92.56C151.333 94.032 148.517 94.768 145.381 94.768C140.389 94.768 136.389 92.976 133.381 89.392C130.437 85.808 128.965 80.432 128.965 73.264C128.965 67.824 129.605 63.344 130.885 59.824C132.165 56.304 133.669 53.776 135.397 52.24C136.485 51.28 138.693 50.48 142.021 49.84C145.413 49.2 148.421 48.88 151.045 48.88C153.349 48.88 155.717 49.104 158.149 49.552C157.957 46.48 157.861 44.784 157.861 44.464V36.4L174.373 35.728ZM152.581 81.904C154.309 81.904 156.101 81.616 157.957 81.04V60.208C156.101 59.952 154.053 59.824 151.813 59.824C149.893 59.824 148.677 59.984 148.165 60.304C147.461 60.816 146.885 62.288 146.437 64.72C146.053 67.088 145.861 69.584 145.861 72.208C145.861 76.112 146.437 78.704 147.589 79.984C148.805 81.264 150.469 81.904 152.581 81.904ZM211.913 48.88C216.905 48.88 220.745 50.384 223.433 53.392C226.185 56.4 227.561 61.712 227.561 69.328C227.561 74.896 226.985 79.664 225.833 83.632C224.745 87.536 223.497 90.032 222.089 91.12C220.425 92.464 217.961 93.456 214.697 94.096C211.433 94.736 207.721 95.056 203.561 95.056C200.361 95.056 196.777 94.8 192.809 94.288C188.841 93.84 185.289 93.104 182.153 92.08V36.4L198.761 35.728V44.752C198.761 45.264 198.729 46.448 198.665 48.304C198.665 50.16 198.601 51.728 198.473 53.008C198.345 54.224 198.153 55.152 197.897 55.792L198.473 56.464C199.945 54.224 201.801 52.4 204.041 50.992C206.281 49.584 208.905 48.88 211.913 48.88ZM209.225 83.536C209.609 82.896 209.929 81.392 210.185 79.024C210.505 76.656 210.665 74.384 210.665 72.208C210.665 69.648 210.537 67.632 210.281 66.16C210.089 64.688 209.545 63.536 208.649 62.704C207.817 61.808 206.505 61.36 204.713 61.36C203.113 61.36 201.065 61.584 198.569 62.032V83.728C200.937 84.112 203.401 84.304 205.961 84.304C207.817 84.304 208.905 84.048 209.225 83.536Z" fill="white"/>
</svg>
